<svg xmlns="http://www.w3.org/2000/svg" xmlns:xlink="http://www.w3.org/1999/xlink" viewBox="0 0 588 127">
  <defs>
    <mask id="a" x="156" y="25" width="435" height="75" maskUnits="userSpaceOnUse">
      <rect x="156" y="25" width="435" height="75" style="fill: #fff"/>
    </mask>
    <mask id="c" x="58" y="20" width="10" height="87" maskUnits="userSpaceOnUse">
      <rect x="58" y="20" width="10" height="87" style="fill: #fff"/>
    </mask>
  </defs>
  <title>about-logo</title>
  <g style="mask: url(#a)">
    <path d="M158.22,94.63l1.56-4.08h6.91l1.57,4.08h2.21l-6.11-15.89h-2.24L156,94.63ZM166,88.7h-5.51l2.76-7.22ZM177,100c3.62,0,5-2.38,5-5.14V78.74h-2.12V94.86c0,1.68-.77,3.11-2.85,3.11a8.39,8.39,0,0,1-1.5-.18l-.21,2A10.86,10.86,0,0,0,177,100Zm13.83-5.1a4.15,4.15,0,0,0,3.62-2v1.69h2V83.86h-2v5.92A3.17,3.17,0,0,1,191.11,93a2.66,2.66,0,0,1-2.61-3V83.86h-2v6.22C186.45,93.1,188.13,94.9,190.86,94.9Zm12-.27V88.79A3,3,0,0,1,206,85.52c1.45,0,2.45,1.17,2.45,3v6.11h2v-5.4c0-2.4,1-3.74,2.94-3.71,1.59,0,2.59,1.2,2.59,3v6.11h2V88.4c0-3-1.49-4.82-4.22-4.82A4.12,4.12,0,0,0,210,85.89a4,4,0,0,0-7.09-.37V83.86h-2V94.63Zm21.34,5.23V92.94a4.41,4.41,0,0,0,3.9,2,5.66,5.66,0,0,0,0-11.32,4.56,4.56,0,0,0-3.88,2V83.86h-2v16ZM227.9,93a3.77,3.77,0,1,1,3.6-3.73A3.59,3.59,0,0,1,227.9,93Zm18.29,1.62V92.69H240l4.21-5a6.85,6.85,0,0,0,1.77-3.9c0-2.67-1.91-4.45-4.79-4.45a4.42,4.42,0,0,0-4.74,3.81l1.83.39a2.63,2.63,0,0,1,2.91-2.29A2.51,2.51,0,0,1,244,83.81a6.21,6.21,0,0,1-1.61,3.07l-5.75,6.85v.9Zm12.15,0V91.51h2.17V89.62h-2.17V79.55H258l-9.48,11.53v.43h7.8v3.12Zm-2-5h-4.39l4.39-5.19ZM275.4,94.9a4.54,4.54,0,0,0,4-2.19v1.92h2V83.86h-2v1.68a4.39,4.39,0,0,0-3.9-2,5.67,5.67,0,0,0-.09,11.32Zm.3-1.89a3.78,3.78,0,0,1,0-7.54,3.8,3.8,0,0,1,3.71,3.76A3.73,3.73,0,0,1,275.7,93Zm12.1,1.62V88.79a3.13,3.13,0,0,1,3.34-3.23,2.68,2.68,0,0,1,2.64,3v6.11h2V88.4c0-3-1.68-4.82-4.39-4.82a4.23,4.23,0,0,0-3.62,1.91V83.86h-2V94.63Zm16.94.27a4.52,4.52,0,0,0,3.87-2v1.69h2V78h-2v7.54a4.39,4.39,0,0,0-3.9-2,5.66,5.66,0,0,0,0,11.32ZM304.9,93a3.66,3.66,0,0,1-3.57-3.8,3.59,3.59,0,0,1,3.57-3.74,3.77,3.77,0,0,1,0,7.54Zm23.83,1.62a4.48,4.48,0,0,0,4.69-4.48,4,4,0,0,0-2.89-4,3.31,3.31,0,0,0,2-3.36c0-2.49-1.68-4.06-4.34-4.06h-6.05V94.63Zm-.47-9.27h-4V80.68h3.89a2.34,2.34,0,0,1,.07,4.68Zm0,7.33h-4V87.2h4.1A2.68,2.68,0,0,1,331.3,90,2.71,2.71,0,0,1,328.29,92.69Zm10.84,1.94V90.68c0-2.83.86-5.16,3-5.16a3.76,3.76,0,0,1,1.59.37l.33-1.89a4.13,4.13,0,0,0-1.89-.42c-1.45,0-2.5.83-3.06,2.72V83.86h-2.06V94.63Zm12,.27a4.13,4.13,0,0,0,3.62-2v1.69h2V83.86h-2v5.92A3.16,3.16,0,0,1,351.42,93a2.66,2.66,0,0,1-2.62-3V83.86h-2v6.22C346.75,93.1,348.43,94.9,351.16,94.9Zm12-.27V88.79a3,3,0,0,1,3.08-3.27c1.45,0,2.45,1.17,2.45,3v6.11h2v-5.4c0-2.4,1-3.74,2.94-3.71,1.59,0,2.6,1.2,2.6,3v6.11h2V88.4c0-3-1.5-4.82-4.23-4.82a4.1,4.1,0,0,0-3.8,2.31,4,4,0,0,0-7.1-.37V83.86h-2V94.63Zm21.91,0v-6h4.27c3.41,0,4.78-2.44,4.78-5s-1.37-5-4.78-5H383V94.63Zm4.13-7.94h-4.13v-6h4.24c1.92,0,2.69,1.54,2.69,3A2.7,2.7,0,0,1,389.21,86.69Zm10.91,7.94V87.69H408v6.94h2.12V78.74H408v7h-7.89v-7H398V94.63Zm17.4,0v-6h4.27c3.41,0,4.79-2.44,4.79-5s-1.38-5-4.79-5H415.4V94.63Zm4.13-7.94h-4.13v-6h4.25c1.91,0,2.68,1.54,2.68,3A2.7,2.7,0,0,1,421.65,86.69Zm19.4,8.21a5.52,5.52,0,0,0,4.15-1.7l-1.28-1.32a3.89,3.89,0,0,1-2.8,1.13,3.77,3.77,0,1,1,0-7.54,3.89,3.89,0,0,1,2.8,1.13l1.28-1.31a5.75,5.75,0,1,0-4.15,9.61Zm12.19,0a5.66,5.66,0,1,0-5.69-5.67A5.55,5.55,0,0,0,453.24,94.9Zm0-1.89a3.77,3.77,0,1,1,3.69-3.78A3.64,3.64,0,0,1,453.24,93Zm11.38,1.62V78h-2V94.63Zm6.36,0V78h-2V94.63Zm8.93.27a4.55,4.55,0,0,0,4-2.19v1.92h2V83.86h-2v1.68a4.41,4.41,0,0,0-3.9-2,5.67,5.67,0,0,0-.09,11.32Zm.3-1.89a3.77,3.77,0,0,1,0-7.54,3.8,3.8,0,0,1,3.71,3.76A3.73,3.73,0,0,1,480.21,93Zm16,1.89a5.66,5.66,0,0,0,0-11.32,4.4,4.4,0,0,0-3.9,2V78h-2V94.63h2V92.94A4.53,4.53,0,0,0,496.19,94.9ZM496,93a3.77,3.77,0,0,1,0-7.54,3.59,3.59,0,0,1,3.59,3.74A3.66,3.66,0,0,1,496,93Zm14.23,1.89a5.66,5.66,0,1,0-5.7-5.67A5.56,5.56,0,0,0,510.23,94.9Zm0-1.89a3.77,3.77,0,1,1,3.68-3.78A3.64,3.64,0,0,1,510.23,93Zm11.4,1.62V90.68c0-2.83.86-5.16,3-5.16a3.76,3.76,0,0,1,1.59.37l.33-1.89a4.13,4.13,0,0,0-1.89-.42c-1.45,0-2.5.83-3.06,2.72V83.86h-2.06V94.63Zm12,.27a4.55,4.55,0,0,0,4-2.19v1.92h2V83.86h-2v1.68a4.41,4.41,0,0,0-3.9-2,5.67,5.67,0,0,0-.09,11.32Zm.3-1.89a3.77,3.77,0,0,1,0-7.54,3.8,3.8,0,0,1,3.71,3.76A3.73,3.73,0,0,1,533.94,93Zm12.94,1.62v-9h2.36V83.86h-2.36V79.8h-2v4.06h-2v1.73h2v9Zm6.43-13.4a1.34,1.34,0,1,0,0-2.68,1.34,1.34,0,1,0,0,2.68Zm1,13.4V83.86h-2V94.63Zm9.27.27a5.66,5.66,0,1,0-5.69-5.67A5.55,5.55,0,0,0,563.61,94.9Zm0-1.89a3.77,3.77,0,1,1,3.69-3.78A3.64,3.64,0,0,1,563.61,93ZM575,94.63V88.79a3.13,3.13,0,0,1,3.34-3.23,2.68,2.68,0,0,1,2.64,3v6.11h2V88.4c0-3-1.68-4.82-4.39-4.82A4.23,4.23,0,0,0,575,85.49V83.86h-2V94.63Z" style="fill: #f1f2f6"/>
  </g>
  <g style="mask: url(#a)">
    <path d="M172.42,52.19c3.63,0,5.62-.85,7.25-2.38a7.72,7.72,0,0,0,2.49-5.66,6.6,6.6,0,0,0-4.77-6.54,6.05,6.05,0,0,0,3.34-5.3,5.65,5.65,0,0,0-1.67-4c-1.46-1.53-3.83-2.54-7.13-2.54H156V52.19Zm-1.18-15.8h-9.37V30.62h9.37a3.31,3.31,0,0,1,2.65.89,2.62,2.62,0,0,1,.81,1.89,3,3,0,0,1-.89,2.15A3.5,3.5,0,0,1,171.24,36.39Zm1,11H161.87V40.76h10.35a3.92,3.92,0,0,1,2.93,1.13,3.23,3.23,0,0,1,.94,2.22,3.42,3.42,0,0,1-.94,2.3A4.2,4.2,0,0,1,172.22,47.42Zm24.36,4.77v-9.7h7.9l5.38,9.7h6.68l-6.23-10.62c3.26-1.42,5.38-4,5.38-7.44a7.84,7.84,0,0,0-2.2-5.45c-1.71-1.78-4.2-2.87-8-2.87H190.75V52.19Zm9.53-14.58h-9.53V30.7h9.13a4,4,0,0,1,3.17,1.13,3.18,3.18,0,0,1,.94,2.3A3.54,3.54,0,0,1,206.11,37.61ZM236.06,53c7,0,12.18-3.72,12.18-10.3V25.81h-5.87V42.7c0,3.47-2.69,5.33-6.31,5.33-3.43,0-6.24-1.86-6.24-5.33V25.81H224V42.7C224,49.28,229.21,53,236.06,53Zm27.66-.81V36.88h.2l7.46,12.32H273l7.45-12.32h.21V52.19h5.87V25.81h-5.42l-8.68,14.46h-.08l-8.72-14.46h-5.59V52.19Zm54.51,0V30.82h9.61v-5h-25.1v5h9.66V52.19Zm39.88,0v-5H340.83v-6.3h9.82V36h-9.82V30.82h16.34v-5H335V52.19ZM377.7,53a20,20,0,0,0,13.53-5.41l-3.71-3.76a13.73,13.73,0,0,1-9.33,4.2,8.72,8.72,0,0,1-9-9A8.65,8.65,0,0,1,378,30a14.26,14.26,0,0,1,8.72,3.39l3.67-3.79A20.5,20.5,0,0,0,377.5,25C368.9,25,363,31.38,363,39,363,46.74,368.86,53,377.7,53Zm26.57-.81V40.47h12.55V52.19h5.86V25.81h-5.86v9.78H404.27V25.81H398.4V52.19Zm50.1,0V30.82H464v-5h-25.1v5h9.66V52.19Zm16.58,0,2.41-5.57h12.3l2.45,5.57h6.39L482.16,25.81h-5L464.8,52.19Zm12.71-10.14h-8.31l4-9.33h.24Zm23.27,10.14v-9.7h8.92c3.63,0,6-1,7.66-2.54a7.91,7.91,0,0,0,.37-11.23c-1.76-1.86-4.28-2.91-8-2.91H501.1V52.19Zm9.12-14.58h-9.12V30.7h9.12a4.13,4.13,0,0,1,3.14,1.09,3.4,3.4,0,0,1,1,2.38,3.52,3.52,0,0,1-1.06,2.43A4.3,4.3,0,0,1,516.05,37.61ZM534,52.19l2.4-5.57h12.31l2.44,5.57h6.4L545.18,25.81h-5L527.82,52.19Zm12.71-10.14h-8.31l4-9.33h.24ZM576,53c6.52,0,12-2.55,12-9,0-7.27-7.58-7.84-12.43-8.16-3.46-.28-7-.45-7-2.79s2.37-3.23,5-3.23A16.15,16.15,0,0,1,583,32.6l3.34-4A23.64,23.64,0,0,0,573.78,25c-5,0-11,2-11,8.36,0,6.18,5.81,7.22,11.28,7.63l.93.06.46,0c4,.32,6.72.89,6.72,3.44s-2.69,3.75-6.07,3.75a18.06,18.06,0,0,1-11.41-4.44l-3.3,4A22.49,22.49,0,0,0,576,53Z" style="fill: #f1f2f6"/>
  </g>
  <g>
    <circle cx="63.5" cy="63.5" r="63.5" style="fill: #ef496c"/>
    <path d="M77.15,53.18a26.2,26.2,0,1,1,0,52.39h0Zm0-31.75a15.88,15.88,0,1,1,0,31.75h0Z" style="fill: #1f2c41;fill-rule: evenodd"/>
    <g style="mask: url(#c)">
      <g>
        <polygon points="67.47 103.61 60.51 103.61 60.51 101.39 59.8 101.39 59.8 106.68 60.51 106.68 60.51 104.45 67.47 104.45 67.47 103.61" style="fill: #1f2c41"/>
        <polygon points="67.47 92.94 66.75 92.94 66.75 96.48 63.78 96.48 63.78 93.22 63.06 93.22 63.06 96.48 60.52 96.48 60.52 93.02 59.8 93.02 59.8 97.32 67.47 97.32 67.47 92.94" style="fill: #1f2c41"/>
        <path d="M67.6,85a3.76,3.76,0,0,0-1.15-2.85l-.59.43a3.1,3.1,0,0,1,1,2.36,3.19,3.19,0,0,1-6.38,0,3.12,3.12,0,0,1,1-2.3l-.65-.42a3.95,3.95,0,0,0,2.89,6.65A3.72,3.72,0,0,0,67.6,85Z" style="fill: #1f2c41"/>
        <polygon points="67.47 77.03 63.77 77.03 63.77 72.63 67.47 72.63 67.47 71.8 59.8 71.8 59.8 72.63 63.05 72.63 63.05 77.03 59.8 77.03 59.8 77.87 67.47 77.87 67.47 77.03" style="fill: #1f2c41"/>
        <polygon points="67.47 59.33 60.51 59.33 60.51 57.11 59.8 57.11 59.8 62.4 60.51 62.4 60.51 60.16 67.47 60.16 67.47 59.33" style="fill: #1f2c41"/>
        <polygon points="67.47 53.79 65.32 52.94 65.32 49.44 67.47 48.58 67.47 47.63 59.78 50.84 59.78 51.47 67.47 54.66 67.47 53.79" style="fill: #1f2c41"/>
        <polygon points="64.59 49.72 64.59 52.65 60.91 51.18 64.59 49.72" style="fill: #ef496c"/>
        <path d="M67.47,42.76H64v-1c0-1.36-.56-2.63-2.12-2.63s-2.11,1.16-2.11,2.49v2h7.67Z" style="fill: #1f2c41"/>
        <path d="M63.32,41.68v1.08H60.51V41.64c0-1,.48-1.67,1.41-1.67S63.32,40.76,63.32,41.68Z" style="fill: #ef496c"/>
        <polygon points="67.47 35.11 65.32 34.25 65.32 30.75 67.47 29.9 67.47 28.95 59.78 32.15 59.78 32.79 67.47 35.98 67.47 35.11" style="fill: #1f2c41"/>
        <polygon points="64.59 31.04 64.59 33.97 60.91 32.5 64.59 31.04" style="fill: #ef496c"/>
        <path d="M67.6,23.16a2.26,2.26,0,0,0-2.2-2.55c-1.1,0-1.63.75-2,1.68l-.45,1c-.21.52-.51,1.07-1.31,1.07s-1.19-.64-1.19-1.47a2.1,2.1,0,0,1,.83-1.65l-.56-.49a2.66,2.66,0,0,0-1,2.1,2.13,2.13,0,0,0,2,2.36A1.86,1.86,0,0,0,63.53,24L64,22.82c.32-.71.7-1.35,1.5-1.35s1.36.66,1.36,1.59A2.58,2.58,0,0,1,65.69,25l.55.57A3,3,0,0,0,67.6,23.16Z" style="fill: #1f2c41"/>
      </g>
    </g>
  </g>
</svg>
