<svg xmlns="http://www.w3.org/2000/svg" width="40" height="40" viewBox="0 0 40 40">
    <circle cx="19.8" cy="20.2" r="3.6"/>
    <path d="M24.3,11.4H15.4a4.6,4.6,0,0,0-3.2,1.1,4.8,4.8,0,0,0-1.1,3.2v8.9a4.6,4.6,0,0,0,1.2,3.3A4.5,4.5,0,0,0,15.4,29h8.9a4.8,4.8,0,0,0,3.2-1.1,4.2,4.2,0,0,0,1.2-3.2V15.8a4.8,4.8,0,0,0-1.1-3.2A4.6,4.6,0,0,0,24.3,11.4ZM19.8,25.7a5.5,5.5,0,0,1-5.5-5.5,5.6,5.6,0,0,1,5.5-5.6,5.7,5.7,0,0,1,5.6,5.6A5.5,5.5,0,0,1,19.8,25.7Zm5.8-10a1.3,1.3,0,1,1,1.3-1.3A1.3,1.3,0,0,1,25.6,15.7Z" transform="translate(0 0)"/>
    <path d="M20,0A20,20,0,1,0,40,20,19.9,19.9,0,0,0,20,0ZM30.6,24.7a6,6,0,0,1-6.3,6.4H15.4a6.1,6.1,0,0,1-4.5-1.8,6,6,0,0,1-1.8-4.6V15.8a6,6,0,0,1,6.3-6.4h9a6.2,6.2,0,0,1,4.5,1.8,6.1,6.1,0,0,1,1.7,4.6Z" transform="translate(0 0)"/>
</svg>
