<svg xmlns="http://www.w3.org/2000/svg" viewBox="0 0 40 40">
  <title>Jump24 logo mark</title>
  <path d="M20 0c11.046 0 20 8.954 20 20s-8.954 20-20 20S0 31.046 0 20 8.954 0 20 0zm-.014 10.85h-.082c-.956 0-1.74.735-1.816 1.671l-.006.15v9.196l.007.314.022.311a3.644 3.644 0 01-7.234-.625l-.006-.15a1.822 1.822 0 00-3.632 0l-.006.15a7.286 7.286 0 007.288 7.284 7.264 7.264 0 005.423-2.421 7.271 7.271 0 005.426 2.42 7.286 7.286 0 007.288-7.283l-.007-.15-.017-.146a1.822 1.822 0 00-3.614.146l-.006.15-.005.193a3.643 3.643 0 01-7.227.434c.017-.207.026-.416.026-.627l-.001-1.309.056.012c.046.007.093.013.14.016l.143.006h.913l.15-.006a1.821 1.821 0 00-.15-3.636h-.913l-.171.008-.167.023v-4.31l-.006-.15a1.822 1.822 0 00-1.816-1.672z" fill="#424957" fill-rule="evenodd"></path>
</svg>
