<svg xmlns="http://www.w3.org/2000/svg" viewBox="0 0 30 30">
  <title>link</title>
  <path d="M15,0A15,15,0,1,0,30,15,15,15,0,0,0,15,0Zm3.42,9.3H16.94a.65.65,0,1,1,0-1.3h4.41l.07,0,.18,0h0a.62.62,0,0,1,.39.59h0v4.41a.65.65,0,1,1-1.3,0V10.22l-1.62,1.62L17,14,15.21,15.7l-.72.73a.66.66,0,0,1-.92,0,.65.65,0,0,1,0-.91v0c.29-.3.59-.59.89-.89l1.83-1.83,2.12-2.11L19.78,9.3Zm3.58,7v3.8a1.48,1.48,0,0,1,0,.21,2.08,2.08,0,0,1-.18.66,1.66,1.66,0,0,1-.3.43A1.87,1.87,0,0,1,20.2,22H9.65A1.91,1.91,0,0,1,9,21.8,1.75,1.75,0,0,1,8,20.57a5.62,5.62,0,0,1,0-.92V9.8A1.79,1.79,0,0,1,9.84,8H14a.65.65,0,0,1,0,1.3H9.72l-.12,0-.11.06-.09.09-.06.11a1,1,0,0,0,0,.14s0,0,0,0V20c0,.1,0,.21,0,.31a.56.56,0,0,0,0,.12l.06.11.09.09.11.06.14,0h0c.41,0,.82,0,1.23,0h9.26a.23.23,0,0,0,.11,0l.12-.06.08-.09a.75.75,0,0,0,.07-.12s0-.08,0-.12,0-.34,0-.51V16A.65.65,0,0,1,22,16Z" transform="translate(0 0)"/>
</svg>
