<svg xmlns="http://www.w3.org/2000/svg" width="40" height="40" viewBox="0 0 40 40">
    <path d="M20,0A20,20,0,1,0,40,20,20.1,20.1,0,0,0,20,0Zm9.5,31.3h-19a1.7,1.7,0,0,1-1.7-1.6V10.5a1.7,1.7,0,0,1,1.7-1.6h19a1.6,1.6,0,0,1,1.6,1.6V29.7h0A1.6,1.6,0,0,1,29.5,31.3Z" transform="translate(0 0)"/>
    <path d="M23.9,17.3A3.5,3.5,0,0,0,20.8,19h0V17.5H17.5V27.7h3.3V22a1.9,1.9,0,0,1,.1-.8,2,2,0,0,1,1.8-1.3c1.2,0,1.7,1,1.7,2.3v5.5h3.3V21.9C27.7,18.7,26.1,17.3,23.9,17.3Z" transform="translate(0 0)"/>
    <path d="M13.9,12.6A1.8,1.8,0,0,0,12,14.4a1.7,1.7,0,0,0,1.9,1.7h0a1.7,1.7,0,0,0,1.9-1.7A1.8,1.8,0,0,0,13.9,12.6Z" transform="translate(0 0)"/>
    <rect x="12.2" y="17.5" width="3.4" height="10.14"/>
</svg>
