<svg xmlns="http://www.w3.org/2000/svg" viewBox="0 0 231.28 50">
  <title>Brum Tech Tapas</title>
  <g>
    <path d="M70.05,26.22a2.39,2.39,0,0,0,1.31-2.09,2.24,2.24,0,0,0-.66-1.57,3.7,3.7,0,0,0-2.8-1H61.65V32H68.1a3.75,3.75,0,0,0,2.84-.94,3.05,3.05,0,0,0,1-2.24A2.63,2.63,0,0,0,70.05,26.22ZM64,23.46h3.68a1.29,1.29,0,0,1,1,.35,1.06,1.06,0,0,1,.32.75,1.23,1.23,0,0,1-.35.85,1.36,1.36,0,0,1-1,.33H64Zm5.22,6.25a1.62,1.62,0,0,1-1.15.4H64V27.47H68a1.54,1.54,0,0,1,1.15.45,1.3,1.3,0,0,1,.37.88A1.38,1.38,0,0,1,69.17,29.71Z" style="fill: #f1f2f6"></path>
    <path d="M83,27.79a3.21,3.21,0,0,0,2.12-2.94,3.09,3.09,0,0,0-.87-2.16,4,4,0,0,0-3.13-1.14h-5.8V32h2.29V28.16h3.11L82.8,32h2.62Zm-1.64-1.57H77.58V23.49h3.59a1.55,1.55,0,0,1,1.24.45,1.27,1.27,0,0,1,.37.91A1.38,1.38,0,0,1,81.33,26.22Z" style="fill: #f1f2f6"></path>
    <path d="M93.08,32.32c2.77,0,4.79-1.47,4.79-4.08V21.55H95.56v6.69c0,1.38-1,2.11-2.48,2.11a2.17,2.17,0,0,1-2.44-2.11V21.55H88.33v6.69C88.33,30.85,90.4,32.32,93.08,32.32Z" style="fill: #f1f2f6"></path>
    <polygon points="103.95 32 103.95 25.94 104.03 25.94 106.95 30.82 107.59 30.82 110.52 25.94 110.6 25.94 110.6 32 112.91 32 112.91 21.55 110.78 21.55 107.37 27.28 107.34 27.28 103.91 21.55 101.72 21.55 101.72 32 103.95 32" style="fill: #f1f2f6"></polygon>
    <polygon points="125.35 32 125.35 23.54 129.13 23.54 129.13 21.55 119.27 21.55 119.27 23.54 123.06 23.54 123.06 32 125.35 32" style="fill: #f1f2f6"></polygon>
    <polygon points="141.01 32 141.01 30.03 134.23 30.03 134.23 27.54 138.08 27.54 138.08 25.57 134.23 25.57 134.23 23.54 140.64 23.54 140.64 21.55 131.94 21.55 131.94 32 141.01 32" style="fill: #f1f2f6"></polygon>
    <path d="M148.71,32.32A7.8,7.8,0,0,0,154,30.18l-1.46-1.49a5.37,5.37,0,0,1-3.66,1.66,3.44,3.44,0,0,1-3.55-3.57,3.41,3.41,0,0,1,3.47-3.56,5.56,5.56,0,0,1,3.42,1.34l1.44-1.5a8,8,0,0,0-5.05-1.83,5.55,5.55,0,1,0,.08,11.09Z" style="fill: #f1f2f6"></path>
    <polygon points="159.14 32 159.14 27.36 164.06 27.36 164.06 32 166.37 32 166.37 21.55 164.06 21.55 164.06 25.42 159.14 25.42 159.14 21.55 156.83 21.55 156.83 32 159.14 32" style="fill: #f1f2f6"></polygon>
    <polygon points="178.81 32 178.81 23.54 182.59 23.54 182.59 21.55 172.73 21.55 172.73 23.54 176.52 23.54 176.52 32 178.81 32" style="fill: #f1f2f6"></polygon>
    <path d="M189.72,21.55h-2L182.91,32h2.41l1-2.21h4.83l1,2.21h2.51ZM187.05,28l1.58-3.69h.1L190.31,28Z" style="fill: #f1f2f6"></path>
    <path d="M206.1,22.7A4.05,4.05,0,0,0,203,21.55h-5.79V32h2.29V28.16H203a4.09,4.09,0,0,0,3-1,3.16,3.16,0,0,0,.14-4.45Zm-1.87,3.12a1.64,1.64,0,0,1-1.2.4h-3.58V23.49H203a1.59,1.59,0,0,1,1.23.43,1.38,1.38,0,0,1,.39.94A1.35,1.35,0,0,1,204.23,25.82Z" style="fill: #f1f2f6"></path>
    <path d="M214.47,21.55h-2L207.65,32h2.42l.94-2.21h4.84l1,2.21h2.51ZM211.8,28l1.58-3.69h.1L215.06,28Z" style="fill: #f1f2f6"></path>
    <path d="M226.58,32.32c2.56,0,4.7-1,4.7-3.58,0-2.88-3-3.11-4.88-3.24-1.36-.11-2.73-.17-2.73-1.1s.93-1.28,2-1.28a6.36,6.36,0,0,1,3.66,1.12l1.31-1.6a9.19,9.19,0,0,0-4.91-1.41c-2,0-4.32.79-4.32,3.31s2.28,2.86,4.43,3l.36,0h.19c1.56.13,2.64.35,2.64,1.36s-1.06,1.49-2.39,1.49a7.09,7.09,0,0,1-4.48-1.76l-1.29,1.57A8.77,8.77,0,0,0,226.58,32.32Z" style="fill: #f1f2f6"></path>
  </g>
  <circle cx="25" cy="25" r="25" style="fill: #ef496c"></circle>
  <path d="M30.38,20.94a10.31,10.31,0,0,1,0,20.62h0Zm0-12.5a6.25,6.25,0,0,1,0,12.5h0Z" style="fill: #1f2c41;fill-rule: evenodd"></path>
</svg>
