<svg xmlns="http://www.w3.org/2000/svg" viewBox="0 0 128 128">
  <title>youtube</title>
  <circle cx="64" cy="64" r="64" style="fill: #1f2c41"></circle>
  <path d="M103.2,48s-.78-5.51-3.18-7.93a11.39,11.39,0,0,0-8-3.39c-11.19-.81-28-.81-28-.81h0s-16.79,0-28,.81a11.39,11.39,0,0,0-8,3.39C25.58,42.49,24.8,48,24.8,48A121.16,121.16,0,0,0,24,61V67a120.91,120.91,0,0,0,.8,13s.78,5.51,3.18,7.94c3,3.19,7,3.09,8.82,3.42,6.4.62,27.2.81,27.2.81s16.81,0,28-.84c1.56-.19,5-.2,8-3.39,2.4-2.43,3.18-7.94,3.18-7.94a120.91,120.91,0,0,0,.8-13V61a121.16,121.16,0,0,0-.8-13M54.73,75.43V50.85L78.36,63.18Z" style="fill: #fff"></path>
</svg>
