<svg xmlns="http://www.w3.org/2000/svg" viewBox="0 0 40 40" class="svg-twitter">
  <title>twitter</title>
  <path d="M22.78,12.19a4,4,0,0,0-2.73,4.07l.05.69-.7-.09a11.31,11.31,0,0,1-6.65-3.27l-.92-.92-.24.68a4.1,4.1,0,0,0,.86,4.18c.56.59.44.68-.53.32-.33-.11-.62-.2-.65-.15a4.91,4.91,0,0,0,.5,1.89,4.47,4.47,0,0,0,1.91,1.81l.69.32-.81,0c-.78,0-.81,0-.73.31a4.22,4.22,0,0,0,2.61,2.31l.87.3-.75.45a7.89,7.89,0,0,1-3.75,1.05,4.05,4.05,0,0,0-1.14.11,10.62,10.62,0,0,0,2.69,1.24,11.82,11.82,0,0,0,9.17-1A12.37,12.37,0,0,0,27.18,21a14.83,14.83,0,0,0,.95-4.24c0-.65,0-.73.82-1.51a8.94,8.94,0,0,0,1-1.09c.14-.27.13-.27-.59,0-1.18.43-1.35.37-.76-.26a4.24,4.24,0,0,0,1-1.52s-.21,0-.45.16a8.12,8.12,0,0,1-1.23.48l-.75.24-.69-.47a6.24,6.24,0,0,0-1.19-.62A4.68,4.68,0,0,0,22.78,12.19ZM20,40A20,20,0,1,1,40,20,20,20,0,0,1,20,40Z"></path>
</svg>
