<svg xmlns="http://www.w3.org/2000/svg" viewBox="0 0 432 28" class="about__logo-name">
  <title>brum tech tapas</title>
  <path d="M16.42,27.19c3.63,0,5.62-.85,7.25-2.38a7.72,7.72,0,0,0,2.49-5.66,6.6,6.6,0,0,0-4.77-6.54,6.05,6.05,0,0,0,3.34-5.3,5.65,5.65,0,0,0-1.67-4C21.6,1.82,19.23.81,15.93.81H0V27.19Zm-1.18-15.8H5.87V5.62h9.37a3.31,3.31,0,0,1,2.65.89A2.62,2.62,0,0,1,18.7,8.4a3,3,0,0,1-.89,2.15A3.5,3.5,0,0,1,15.24,11.39Zm1,11H5.87V15.76H16.22a3.92,3.92,0,0,1,2.93,1.13,3.23,3.23,0,0,1,.94,2.22,3.42,3.42,0,0,1-.94,2.3A4.2,4.2,0,0,1,16.22,22.42Zm24.36,4.77v-9.7h7.9l5.38,9.7h6.68L54.31,16.57c3.26-1.42,5.38-4,5.38-7.44a7.84,7.84,0,0,0-2.2-5.45C55.78,1.9,53.29.81,49.5.81H34.75V27.19Zm9.53-14.58H40.58V5.7h9.13a4,4,0,0,1,3.17,1.13,3.18,3.18,0,0,1,.94,2.3A3.54,3.54,0,0,1,50.11,12.61ZM80.06,28c7,0,12.18-3.72,12.18-10.3V.81H86.37V17.7c0,3.47-2.69,5.33-6.31,5.33-3.43,0-6.24-1.86-6.24-5.33V.81H68V17.7C68,24.28,73.21,28,80.06,28Zm27.66-.81V11.88h.2l7.46,12.32H117l7.45-12.32h.21V27.19h5.87V.81h-5.42l-8.68,14.46h-.08L107.64.81h-5.59V27.19Zm54.51,0V5.82h9.61v-5h-25.1v5h9.66V27.19Zm39.88,0v-5H184.83v-6.3h9.82V11h-9.82V5.82h16.34v-5H179V27.19ZM221.7,28a20,20,0,0,0,13.53-5.41l-3.71-3.76a13.73,13.73,0,0,1-9.33,4.2,8.72,8.72,0,0,1-9-9A8.65,8.65,0,0,1,222,5a14.26,14.26,0,0,1,8.72,3.39l3.67-3.79A20.5,20.5,0,0,0,221.5,0C212.9,0,207,6.38,207,14,207,21.74,212.86,28,221.7,28Zm26.57-.81V15.47h12.55V27.19h5.86V.81h-5.86v9.78H248.27V.81H242.4V27.19Zm50.1,0V5.82H308v-5h-25.1v5h9.66V27.19Zm16.58,0,2.41-5.57h12.3l2.45,5.57h6.39L326.16.81h-5L308.8,27.19Zm12.71-10.14h-8.31l4-9.33h.24Zm23.27,10.14v-9.7h8.92c3.63,0,6-1,7.66-2.54A8,8,0,0,0,370,9.13a8,8,0,0,0-2.16-5.41c-1.76-1.86-4.28-2.91-8-2.91H345.1V27.19Zm9.12-14.58h-9.12V5.7h9.12a4.13,4.13,0,0,1,3.14,1.09,3.4,3.4,0,0,1,1,2.38,3.52,3.52,0,0,1-1.06,2.43A4.3,4.3,0,0,1,360.05,12.61ZM378,27.19l2.4-5.57h12.31l2.44,5.57h6.4L389.18.81h-5L371.82,27.19Zm12.71-10.14h-8.31l4-9.33h.24ZM420,28c6.52,0,12-2.55,12-9,0-7.27-7.58-7.84-12.43-8.16-3.46-.28-7-.45-7-2.79s2.37-3.23,5-3.23A16.15,16.15,0,0,1,427,7.6l3.34-4A23.64,23.64,0,0,0,417.78,0c-5,0-11,2-11,8.36,0,6.18,5.81,7.22,11.28,7.63l.93.06.46,0c4,.32,6.72.89,6.72,3.44s-2.69,3.75-6.07,3.75a18.06,18.06,0,0,1-11.41-4.44l-3.3,4A22.49,22.49,0,0,0,420,28Z" style="fill: #f1f2f6"></path>
</svg>
