<svg xmlns="http://www.w3.org/2000/svg" viewBox="0 0 427 22" class="about__logo-collab">
  <title>jump24 collaboration</title>
  <path d="M2.22,16.63l1.56-4.08h6.91l1.57,4.08h2.21L8.36.74H6.12L0,16.63ZM10,10.7H4.48L7.24,3.48ZM21,22c3.62,0,5-2.38,5-5.14V.74H23.88V16.86c0,1.68-.77,3.11-2.85,3.11a8.39,8.39,0,0,1-1.5-.18l-.21,2A10.86,10.86,0,0,0,21,22Zm13.83-5.1a4.15,4.15,0,0,0,3.62-2v1.69h2V5.86h-2v5.92A3.17,3.17,0,0,1,35.11,15a2.66,2.66,0,0,1-2.61-3V5.86h-2v6.22C30.45,15.1,32.13,16.9,34.86,16.9Zm12-.27V10.79A3,3,0,0,1,50,7.52c1.45,0,2.45,1.17,2.45,3v6.11h2v-5.4c0-2.4,1-3.74,2.94-3.71,1.59,0,2.59,1.2,2.59,3v6.11h2V10.4c0-3-1.49-4.82-4.22-4.82A4.12,4.12,0,0,0,54,7.89a4,4,0,0,0-7.09-.37V5.86h-2V16.63Zm21.34,5.23V14.94a4.41,4.41,0,0,0,3.9,2,5.37,5.37,0,0,0,5.44-5.65,5.43,5.43,0,0,0-5.46-5.67,4.56,4.56,0,0,0-3.88,2V5.86h-2v16ZM71.9,15a3.7,3.7,0,0,1-3.69-3.73,3.65,3.65,0,1,1,7.29,0A3.59,3.59,0,0,1,71.9,15Zm18.29,1.62V14.69H84l4.21-5A6.85,6.85,0,0,0,90,5.81c0-2.67-1.91-4.45-4.79-4.45a4.42,4.42,0,0,0-4.74,3.81l1.83.39a2.63,2.63,0,0,1,2.91-2.29A2.51,2.51,0,0,1,88,5.81a6.21,6.21,0,0,1-1.61,3.07l-5.75,6.85v.9Zm12.15,0V13.51h2.17V11.62h-2.17V1.55H102L92.51,13.08v.43h7.8v3.12Zm-2-5H95.92l4.39-5.19ZM119.4,16.9a4.54,4.54,0,0,0,4-2.19v1.92h2V5.86h-2V7.54a4.39,4.39,0,0,0-3.9-2,5.46,5.46,0,0,0-5.44,5.65A5.48,5.48,0,0,0,119.4,16.9Zm.3-1.89a3.69,3.69,0,0,1-3.59-3.78,3.69,3.69,0,0,1,3.57-3.76,3.8,3.8,0,0,1,3.71,3.76A3.73,3.73,0,0,1,119.7,15Zm12.1,1.62V10.79a3.13,3.13,0,0,1,3.34-3.23,2.68,2.68,0,0,1,2.64,3v6.11h2V10.4c0-3-1.68-4.82-4.39-4.82a4.23,4.23,0,0,0-3.62,1.91V5.86h-2V16.63Zm16.94.27a4.52,4.52,0,0,0,3.87-2v1.69h2V0h-2V7.54a4.39,4.39,0,0,0-3.9-2,5.39,5.39,0,0,0-5.44,5.65A5.43,5.43,0,0,0,148.74,16.9ZM148.9,15a3.66,3.66,0,0,1-3.57-3.8,3.59,3.59,0,0,1,3.57-3.74,3.71,3.71,0,0,1,3.71,3.74A3.69,3.69,0,0,1,148.9,15Zm23.83,1.62a4.48,4.48,0,0,0,4.69-4.48,4,4,0,0,0-2.89-4,3.31,3.31,0,0,0,2-3.36c0-2.49-1.68-4.06-4.34-4.06h-6.05V16.63Zm-.47-9.27h-4V2.68h3.89A2.11,2.11,0,0,1,174.44,5,2.1,2.1,0,0,1,172.26,7.36Zm0,7.33h-4V9.2h4.1A2.68,2.68,0,0,1,175.3,12,2.71,2.71,0,0,1,172.29,14.69Zm10.84,1.94V12.68c0-2.83.86-5.16,3-5.16a3.76,3.76,0,0,1,1.59.37L188.08,6a4.13,4.13,0,0,0-1.89-.42c-1.45,0-2.5.83-3.06,2.72V5.86h-2.06V16.63Zm12,.27a4.13,4.13,0,0,0,3.62-2v1.69h2V5.86h-2v5.92A3.16,3.16,0,0,1,195.42,15a2.66,2.66,0,0,1-2.62-3V5.86h-2v6.22C190.75,15.1,192.43,16.9,195.16,16.9Zm12-.27V10.79a3,3,0,0,1,3.08-3.27c1.45,0,2.45,1.17,2.45,3v6.11h2v-5.4c0-2.4,1-3.74,2.94-3.71,1.59,0,2.6,1.2,2.6,3v6.11h2V10.4c0-3-1.5-4.82-4.23-4.82a4.1,4.1,0,0,0-3.8,2.31,4,4,0,0,0-7.1-.37V5.86h-2V16.63Zm21.91,0v-6h4.27c3.41,0,4.78-2.44,4.78-4.95s-1.37-5-4.78-5H227V16.63Zm4.13-7.94h-4.13v-6h4.24c1.92,0,2.69,1.54,2.69,3A2.7,2.7,0,0,1,233.21,8.69Zm10.91,7.94V9.69H252v6.94h2.12V.74H252v7h-7.89v-7H242V16.63Zm17.4,0v-6h4.27c3.41,0,4.79-2.44,4.79-4.95s-1.38-5-4.79-5H259.4V16.63Zm4.13-7.94h-4.13v-6h4.25c1.91,0,2.68,1.54,2.68,3A2.7,2.7,0,0,1,265.65,8.69Zm19.4,8.21a5.52,5.52,0,0,0,4.15-1.7l-1.28-1.32a3.89,3.89,0,0,1-2.8,1.13,3.77,3.77,0,1,1,0-7.54,3.89,3.89,0,0,1,2.8,1.13l1.28-1.31a5.75,5.75,0,1,0-4.15,9.61Zm12.19,0A5.55,5.55,0,0,0,303,11.23a5.71,5.71,0,0,0-11.41,0A5.53,5.53,0,0,0,297.24,16.9Zm0-1.89a3.64,3.64,0,0,1-3.64-3.78,3.67,3.67,0,1,1,7.33,0A3.66,3.66,0,0,1,297.24,15Zm11.38,1.62V0h-2V16.63Zm6.36,0V0h-2V16.63Zm8.93.27a4.55,4.55,0,0,0,4-2.19v1.92h2V5.86h-2V7.54a4.41,4.41,0,0,0-3.9-2,5.46,5.46,0,0,0-5.44,5.65A5.48,5.48,0,0,0,323.91,16.9Zm.3-1.89a3.7,3.7,0,0,1-3.6-3.78,3.69,3.69,0,0,1,3.58-3.76,3.8,3.8,0,0,1,3.71,3.76A3.73,3.73,0,0,1,324.21,15Zm16,1.89a5.43,5.43,0,0,0,5.46-5.67,5.38,5.38,0,0,0-5.44-5.65,4.4,4.4,0,0,0-3.9,2V0h-2V16.63h2V14.94A4.53,4.53,0,0,0,340.19,16.9ZM340,15a3.68,3.68,0,0,1-3.69-3.8A3.71,3.71,0,0,1,340,7.47a3.59,3.59,0,0,1,3.59,3.74A3.66,3.66,0,0,1,340,15Zm14.23,1.89A5.56,5.56,0,0,0,360,11.23a5.71,5.71,0,0,0-11.42,0A5.54,5.54,0,0,0,354.23,16.9Zm0-1.89a3.64,3.64,0,0,1-3.65-3.78,3.67,3.67,0,1,1,7.33,0A3.66,3.66,0,0,1,354.23,15Zm11.4,1.62V12.68c0-2.83.86-5.16,3-5.16a3.76,3.76,0,0,1,1.59.37L370.58,6a4.13,4.13,0,0,0-1.89-.42c-1.45,0-2.5.83-3.06,2.72V5.86h-2.06V16.63Zm12,.27a4.55,4.55,0,0,0,4-2.19v1.92h2V5.86h-2V7.54a4.41,4.41,0,0,0-3.9-2,5.46,5.46,0,0,0-5.44,5.65A5.48,5.48,0,0,0,377.64,16.9Zm.3-1.89a3.7,3.7,0,0,1-3.6-3.78,3.69,3.69,0,0,1,3.58-3.76,3.8,3.8,0,0,1,3.71,3.76A3.73,3.73,0,0,1,377.94,15Zm12.94,1.62v-9h2.36V5.86h-2.36V1.8h-2V5.86h-2V7.59h2v9Zm6.43-13.4a1.39,1.39,0,0,0,1.45-1.34A1.39,1.39,0,0,0,397.31.55a1.38,1.38,0,0,0-1.42,1.34A1.38,1.38,0,0,0,397.31,3.23Zm1,13.4V5.86h-2V16.63Zm9.27.27a5.55,5.55,0,0,0,5.72-5.67,5.71,5.71,0,0,0-11.41,0A5.53,5.53,0,0,0,407.61,16.9Zm0-1.89A3.64,3.64,0,0,1,404,11.23a3.67,3.67,0,1,1,7.33,0A3.66,3.66,0,0,1,407.61,15ZM419,16.63V10.79a3.13,3.13,0,0,1,3.34-3.23,2.68,2.68,0,0,1,2.64,3v6.11h2V10.4c0-3-1.68-4.82-4.39-4.82A4.23,4.23,0,0,0,419,7.49V5.86h-2V16.63Z" style="fill: #f1f2f6"></path>
</svg>
