<svg xmlns="http://www.w3.org/2000/svg" xmlns:xlink="http://www.w3.org/1999/xlink" viewBox="0 0 127 127" class="about__logo-mark">
  <defs>
    <mask id="a" x="59" y="20" width="10" height="87" maskUnits="userSpaceOnUse">
      <rect x="59" y="20" width="10" height="87" style="fill: #fff"/>
    </mask>
  </defs>
  <title>Brum Tech Tapas Logo</title>
  <circle cx="63.5" cy="63.5" r="63.5" style="fill: #ef496c"></circle>
  <path d="M77.15,53.18a26.2,26.2,0,1,1,0,52.39h0Zm0-31.75a15.88,15.88,0,1,1,0,31.75h0Z" style="fill: #1f2c41;fill-rule: evenodd"></path>
  <g>
    <rect x="59" y="20" width="10" height="87" style="fill: #ef496c"></rect>
    <g style="mask: url(#a)">
      <g class="about__logo-copy">
        <polygon points="67.47 103.61 60.51 103.61 60.51 101.39 59.8 101.39 59.8 106.68 60.51 106.68 60.51 104.45 67.47 104.45 67.47 103.61" style="fill: #1f2c41"></polygon>
        <polygon points="67.47 92.94 66.75 92.94 66.75 96.48 63.78 96.48 63.78 93.22 63.06 93.22 63.06 96.48 60.52 96.48 60.52 93.02 59.8 93.02 59.8 97.32 67.47 97.32 67.47 92.94" style="fill: #1f2c41"></polygon>
        <path d="M67.6,85a3.76,3.76,0,0,0-1.15-2.85l-.59.43a3.12,3.12,0,0,1,1,2.36,3.19,3.19,0,1,1-6.38,0,3.13,3.13,0,0,1,1-2.3l-.65-.42a4,4,0,0,0,2.89,6.65A3.72,3.72,0,0,0,67.6,85Z" style="fill: #1f2c41"></path>
        <polygon points="67.47 77.03 63.77 77.03 63.77 72.63 67.47 72.63 67.47 71.8 59.8 71.8 59.8 72.63 63.05 72.63 63.05 77.03 59.8 77.03 59.8 77.87 67.47 77.87 67.47 77.03" style="fill: #1f2c41"></polygon>
        <polygon points="67.47 59.33 60.51 59.33 60.51 57.11 59.8 57.11 59.8 62.4 60.51 62.4 60.51 60.16 67.47 60.16 67.47 59.33" style="fill: #1f2c41"></polygon>
        <polygon points="67.47 53.79 65.32 52.94 65.32 49.44 67.47 48.58 67.47 47.63 59.78 50.84 59.78 51.47 67.47 54.66 67.47 53.79" style="fill: #1f2c41"></polygon>
        <polygon points="64.59 49.72 64.59 52.65 60.91 51.18 64.59 49.72" style="fill: #ef496c"></polygon>
        <path d="M67.47,42.76H64v-1c0-1.36-.56-2.63-2.12-2.63s-2.11,1.16-2.11,2.49v2h7.67Z" style="fill: #1f2c41"></path>
        <path d="M63.32,41.68v1.08H60.51V41.64c0-1,.48-1.67,1.41-1.67S63.32,40.76,63.32,41.68Z" style="fill: #ef496c"></path>
        <polygon points="67.47 35.11 65.32 34.25 65.32 30.75 67.47 29.9 67.47 28.95 59.78 32.15 59.78 32.79 67.47 35.98 67.47 35.11" style="fill: #1f2c41"></polygon>
        <polygon points="64.59 31.04 64.59 33.97 60.91 32.5 64.59 31.04" style="fill: #ef496c"></polygon>
        <path d="M67.6,23.16a2.26,2.26,0,0,0-2.2-2.55c-1.1,0-1.63.75-2,1.68l-.45,1c-.21.52-.51,1.07-1.31,1.07s-1.19-.64-1.19-1.47a2.09,2.09,0,0,1,.83-1.65l-.56-.49a2.64,2.64,0,0,0-1,2.1,2.13,2.13,0,0,0,2,2.36A1.86,1.86,0,0,0,63.53,24L64,22.82c.32-.71.7-1.35,1.5-1.35a1.43,1.43,0,0,1,1.36,1.59A2.58,2.58,0,0,1,65.69,25l.55.57A3,3,0,0,0,67.6,23.16Z" style="fill: #1f2c41"></path>
      </g>
    </g>
  </g>
</svg>
